<?xml version="1.0" encoding="utf-8"?>
<!-- Generator: Adobe Illustrator 15.0.2, SVG Export Plug-In . SVG Version: 6.00 Build 0)  -->
<!DOCTYPE svg PUBLIC "-//W3C//DTD SVG 1.1//EN" "http://www.w3.org/Graphics/SVG/1.1/DTD/svg11.dtd">
<svg version="1.1" id="Layer_1" xmlns="http://www.w3.org/2000/svg" xmlns:xlink="http://www.w3.org/1999/xlink" x="0px" y="0px"
	 width="512px" height="512px" viewBox="0 0 512 512" enable-background="new 0 0 512 512" xml:space="preserve">
<path id="path22" d="M169.827,500.63l-0.715-132.754L37.509,390.052l84.791-102.162L7.231,220.289l130.624-23.754L93.17,70.787
	l115.333,65.756L255.101,11.5L301.184,136L417.26,70.163l-44.73,124.99l131.246,24.168l-114.61,67.001l85,102.874l-130.871-22.348
	l-1.021,133.438l-85.88-101.233L169.827,500.63L169.827,500.63z M198.731,332.651l0.472,87.547l57.23-67.159l56.634,66.756
	l0.677-88.23l86.291,14.738l-56.197-68.018l75.575-44.181l-86.775-15.983l29.501-82.423l-76.753,43.531l-30.385-82.094
	l-30.813,82.676l-76.05-43.359l29.545,83.142l-86.132,15.661l76.078,44.692l-55.913,67.365L198.731,332.651L198.731,332.651
	L198.731,332.651z"/>
</svg>
